<svg xmlns="http://www.w3.org/2000/svg" height="40" viewBox="0 -960 960 960" width="40"><path d="M480-492.719q-57.749 0-96.438-38.689-38.689-38.688-38.689-96.438 0-58.005 38.689-96.566 38.689-38.56 96.438-38.56t96.438 38.56q38.689 38.561 38.689 96.566 0 57.75-38.689 96.438-38.689 38.689-96.438 38.689ZM180.001-187.694v-80.255q0-31.282 16.705-55.576 16.705-24.295 43.808-37.346 61.871-28.41 121.064-42.744Q420.77-417.948 480-417.948t118.217 14.539q58.987 14.538 120.859 42.538 27.513 13.051 44.218 37.346 16.705 24.294 16.705 55.576v80.255H180.001Z"/></svg>