<svg width="24" height="24" viewBox="0 0 24 24" fill="none" xmlns="http://www.w3.org/2000/svg">
<path d="M12 21C16.9706 21 21 16.9706 21 12C21 7.02944 16.9706 3 12 3C7.02944 3 3 7.02944 3 12C3 16.9706 7.02944 21 12 21Z" fill="#010101"/>
<path d="M12.019 7.16351C13.6105 7.16351 13.8 7.16349 14.4395 7.20138C14.8165 7.20427 15.19 7.27323 15.5432 7.40509C15.8056 7.50779 16.0407 7.66993 16.23 7.87878C16.4337 8.0725 16.595 8.30635 16.7037 8.5656C16.8333 8.91939 16.9021 9.29258 16.9074 9.66932C16.9358 10.2993 16.9453 10.484 16.9453 12.0898C16.9453 13.6956 16.9453 13.8709 16.9074 14.5056C16.902 14.8839 16.8331 15.2585 16.7037 15.614C16.6008 15.875 16.4387 16.1086 16.23 16.2962C16.0391 16.5031 15.8045 16.6649 15.5432 16.7698C15.1905 16.904 14.8168 16.9745 14.4395 16.9782C13.8095 17.0067 13.62 17.0162 12.019 17.0162C10.4179 17.0162 10.2379 17.0161 9.59843 16.9782C9.22111 16.9745 8.84744 16.904 8.49475 16.7698C8.23039 16.6707 7.99449 16.508 7.80791 16.2962C7.61285 16.1019 7.4597 15.8698 7.35791 15.614C7.2285 15.2585 7.15965 14.8839 7.15422 14.5056C7.1258 13.8804 7.11633 13.6909 7.11633 12.0898C7.11633 10.4888 7.11633 10.3088 7.15422 9.66932C7.15946 9.29258 7.22832 8.91939 7.35791 8.5656C7.45374 8.30542 7.60764 8.07054 7.80791 7.87878C8.00163 7.67508 8.2355 7.51378 8.49475 7.40509C8.84792 7.27323 9.22146 7.20427 9.59843 7.20138C10.2284 7.17296 10.4274 7.16351 12.019 7.16351ZM12.019 6.0835C10.399 6.0835 10.1905 6.08353 9.55106 6.12143C9.05563 6.13249 8.56561 6.22695 8.10159 6.40089C7.70117 6.55247 7.33895 6.79016 7.04054 7.09719C6.73652 7.39713 6.50065 7.75901 6.34896 8.15824C6.17061 8.62118 6.07442 9.11172 6.06475 9.60774C6.03633 10.2472 6.02686 10.4509 6.02686 12.0756C6.02686 13.7003 6.02685 13.9041 6.06475 14.5388C6.07387 15.0364 6.17007 15.5286 6.34896 15.993C6.49674 16.3942 6.73314 16.7569 7.04054 17.054C7.33902 17.3656 7.70084 17.6095 8.10159 17.7693C8.56453 17.9477 9.05505 18.0438 9.55106 18.0535C10.1905 18.0819 10.399 18.0914 12.019 18.0914C13.639 18.0914 13.8474 18.0914 14.4869 18.0535C14.9829 18.0438 15.4734 17.9477 15.9363 17.7693C16.3375 17.6215 16.7002 17.3851 16.9974 17.0777C17.2994 16.7762 17.535 16.4147 17.689 16.0167C17.8679 15.5523 17.964 15.0601 17.9732 14.5625C18.0016 13.9277 18.0111 13.7193 18.0111 12.0993C18.0111 10.4793 18.0111 10.2709 17.9732 9.63139C17.9635 9.13537 17.8673 8.64488 17.689 8.18194C17.5421 7.7803 17.3055 7.41742 16.9974 7.12089C16.6923 6.80732 16.3242 6.56193 15.9174 6.40089C15.4534 6.22695 14.9633 6.13249 14.4679 6.12143C13.8284 6.09301 13.62 6.0835 12 6.0835H12.019Z" fill="white"/>
<path d="M12.0188 8.99219C11.4127 8.99219 10.8202 9.17196 10.3162 9.50872C9.81217 9.84548 9.41935 10.3241 9.18739 10.8841C8.95543 11.4441 8.89474 12.0604 9.01299 12.6549C9.13124 13.2494 9.42314 13.7954 9.85175 14.224C10.2804 14.6527 10.8264 14.9445 11.4209 15.0628C12.0154 15.181 12.6317 15.1203 13.1917 14.8884C13.7517 14.6564 14.2303 14.2636 14.5671 13.7596C14.9038 13.2556 15.0836 12.6631 15.0836 12.0569C15.0836 11.2441 14.7607 10.4646 14.1859 9.88983C13.6112 9.31508 12.8317 8.99219 12.0188 8.99219ZM12.0188 14.0512C11.6233 14.0512 11.2366 13.9338 10.9078 13.7139C10.579 13.4941 10.3228 13.1816 10.1716 12.8161C10.0204 12.4505 9.98114 12.0484 10.0587 11.6605C10.1362 11.2726 10.327 10.9164 10.6071 10.6371C10.8871 10.3577 11.2437 10.1677 11.6318 10.0911C12.0198 10.0145 12.4219 10.0547 12.7871 10.2068C13.1523 10.3588 13.4641 10.6157 13.6832 10.9451C13.9023 11.2744 14.0187 11.6614 14.0178 12.0569C14.0165 12.5862 13.8054 13.0935 13.4306 13.4673C13.0559 13.8412 12.5482 14.0512 12.0188 14.0512Z" fill="white"/>
<path d="M15.2068 9.5982C15.6045 9.5982 15.9268 9.27585 15.9268 8.8782C15.9268 8.48056 15.6045 8.1582 15.2068 8.1582C14.8092 8.1582 14.4868 8.48056 14.4868 8.8782C14.4868 9.27585 14.8092 9.5982 15.2068 9.5982Z" fill="white"/>
</svg>
