<svg width="24" height="24" viewBox="0 0 24 24" fill="none" xmlns="http://www.w3.org/2000/svg">
<path d="M12 21C16.9706 21 21 16.9706 21 12C21 7.02944 16.9706 3 12 3C7.02944 3 3 7.02944 3 12C3 16.9706 7.02944 21 12 21Z" fill="#010101"/>
<path d="M10.5741 16.8646C11.3883 16.869 12.1954 16.7119 12.9485 16.4023C13.7016 16.0927 14.3859 15.6369 14.9616 15.0611C15.5374 14.4853 15.9933 13.8011 16.3028 13.048C16.6124 12.2949 16.7695 11.4878 16.7651 10.6736C16.7651 10.5836 16.7651 10.4888 16.7651 10.3941C17.189 10.0856 17.5561 9.70573 17.8499 9.27149C17.4524 9.44315 17.0332 9.55948 16.6041 9.61727C17.0527 9.3436 17.3887 8.91853 17.5515 8.41884C17.1264 8.67255 16.6597 8.849 16.173 8.93993C15.8441 8.59301 15.4101 8.36388 14.9381 8.28792C14.466 8.21197 13.9821 8.2934 13.5609 8.51962C13.1397 8.74584 12.8046 9.10431 12.6073 9.53978C12.4099 9.97525 12.3613 10.4635 12.4688 10.9294C11.6037 10.8861 10.7574 10.6608 9.98521 10.2682C9.21306 9.87563 8.53242 9.32452 7.98777 8.65093C7.71362 9.13192 7.63109 9.69868 7.75667 10.2379C7.88225 10.7771 8.20669 11.249 8.66514 11.5594C8.31935 11.5487 7.98128 11.4545 7.67988 11.2846V11.313C7.68045 11.8153 7.85413 12.302 8.17165 12.6911C8.48917 13.0802 8.93112 13.348 9.42304 13.4493C9.23601 13.499 9.04339 13.5245 8.84988 13.5251C8.71159 13.5264 8.57351 13.5138 8.43777 13.4873C8.57896 13.9191 8.85076 14.2964 9.21563 14.567C9.5805 14.8377 10.0204 14.9884 10.4746 14.9983C9.706 15.6073 8.75527 15.9409 7.77461 15.9457C7.60211 15.946 7.42972 15.9366 7.2583 15.9173C8.25132 16.5412 9.40134 16.8698 10.5741 16.8646Z" fill="white"/>
</svg>
