<svg width="24" height="24" viewBox="0 0 24 24" fill="none" xmlns="http://www.w3.org/2000/svg">
<path d="M12 21C16.9706 21 21 16.9706 21 12C21 7.02944 16.9706 3 12 3C7.02944 3 3 7.02944 3 12C3 16.9706 7.02944 21 12 21Z" fill="#010101"/>
<path d="M18.461 8.93521C18.3837 8.65133 18.2339 8.39243 18.0263 8.18397C17.8187 7.97552 17.5604 7.82468 17.2768 7.74625C16.2394 7.46678 12.0663 7.4668 12.0663 7.4668C12.0663 7.4668 7.89313 7.46678 6.85576 7.74625C6.57219 7.82468 6.3139 7.97552 6.10628 8.18397C5.89865 8.39243 5.74884 8.65133 5.67155 8.93521C5.29894 11.076 5.29894 13.265 5.67155 15.4057C5.74711 15.6905 5.89634 15.9503 6.10423 16.159C6.31212 16.3677 6.57133 16.518 6.85576 16.5947C7.89313 16.8789 12.0663 16.8789 12.0663 16.8789C12.0663 16.8789 16.2394 16.8789 17.2768 16.5947C17.5612 16.518 17.8204 16.3677 18.0283 16.159C18.2362 15.9503 18.3855 15.6905 18.461 15.4057C18.6537 14.3382 18.7473 13.2552 18.7405 12.1704C18.7425 11.0859 18.649 10.0033 18.461 8.93521Z" fill="white"/>
<path d="M10.6973 14.1459L14.1836 12.1612L10.6973 10.1812V14.1459Z" fill="#010101"/>
</svg>
