<svg width="24" height="24" viewBox="0 0 24 24" fill="none" xmlns="http://www.w3.org/2000/svg">
<path d="M12 21C16.9706 21 21 16.9706 21 12C21 7.02944 16.9706 3 12 3C7.02944 3 3 7.02944 3 12C3 16.9706 7.02944 21 12 21Z" fill="currentColor"/>
<path d="M12.6821 17.9544V12.5449H14.5011L14.7758 10.4371H12.6821V9.08708C12.6821 8.47602 12.8526 8.05442 13.7337 8.05442H14.8516V6.15968C14.3086 6.10489 13.7631 6.07799 13.2174 6.07914C11.6069 6.07914 10.5079 7.05966 10.5079 8.85966V10.4181H8.68896V12.526H10.5032V17.9449L12.6821 17.9544Z" fill="white"/>
</svg>
