<svg width="24" height="24" viewBox="0 0 24 24" fill="none" xmlns="http://www.w3.org/2000/svg">
<g clip-path="url(#clip0)">
<path d="M12.0093 21C16.9798 21 21.0093 16.9706 21.0093 12C21.0093 7.02944 16.9798 3 12.0093 3C7.03871 3 3.00928 7.02944 3.00928 12C3.00928 16.9706 7.03871 21 12.0093 21Z" fill="white"/>
<path d="M11.9998 3C9.90437 3.00421 7.87598 3.73913 6.2641 5.07809C4.65221 6.41705 3.55777 8.27624 3.16929 10.3354C2.78082 12.3945 3.12264 14.5247 4.13588 16.3589C5.14912 18.1931 6.77033 19.6165 8.72022 20.3839C8.60201 19.5247 8.61159 18.6527 8.74866 17.7963C8.90506 17.0948 9.80552 13.3223 9.80552 13.3223C9.62188 12.9009 9.52981 12.4454 9.53539 11.9858C9.53539 10.7346 10.2558 9.80094 11.1657 9.80094C11.3272 9.79759 11.4875 9.82911 11.6356 9.89333C11.7838 9.95754 11.9164 10.0529 12.0244 10.173C12.1323 10.2932 12.2131 10.4351 12.2612 10.5893C12.3093 10.7435 12.3236 10.9062 12.3032 11.0664C12.3032 11.8341 11.8292 12.9952 11.5496 14.0663C11.4985 14.2643 11.4949 14.4716 11.5391 14.6712C11.5832 14.8708 11.6739 15.0572 11.8037 15.2151C11.9335 15.3731 12.0987 15.4982 12.286 15.5802C12.4733 15.6623 12.6772 15.6989 12.8814 15.6872C14.4833 15.6872 15.725 14 15.725 11.564C15.725 9.40762 14.1752 7.89577 11.9619 7.89577C11.4356 7.8733 10.9101 7.95795 10.4175 8.1446C9.9248 8.33125 9.47517 8.61602 9.09584 8.98162C8.7165 9.34722 8.41536 9.78601 8.21067 10.2715C8.00598 10.7569 7.90201 11.2789 7.90506 11.8057C7.90678 12.5422 8.13878 13.2597 8.56856 13.8578C8.60067 13.8932 8.62355 13.9359 8.63512 13.9822C8.6467 14.0285 8.64662 14.077 8.63491 14.1233C8.56856 14.4029 8.42164 15.019 8.38372 15.1422C8.34581 15.2654 8.25103 15.3412 8.08041 15.2654C6.95719 14.7393 6.25576 13.0995 6.25576 11.7773C6.25576 8.93366 8.31738 6.33177 12.1989 6.33177C15.3221 6.33177 17.7487 8.55452 17.7487 11.545C17.7487 14.6446 15.7866 17.1422 13.0804 17.1422C12.6779 17.1554 12.2785 17.0678 11.9185 16.8873C11.5584 16.7069 11.2492 16.4394 11.0188 16.109C11.0188 16.109 10.5686 17.8247 10.4548 18.2465C10.185 19.081 9.80909 19.8774 9.33633 20.6161C10.1982 20.8869 11.0964 21.0243 11.9998 21.0237C14.388 21.0237 16.6784 20.075 18.3672 18.3863C20.0559 16.6976 21.0046 14.4072 21.0046 12.019C21.0046 9.63077 20.0559 7.34036 18.3672 5.65164C16.6784 3.96293 14.388 3.01423 11.9998 3.01423V3Z" fill="#010101"/>
</g>
<defs>
<clipPath id="clip0">
<rect width="18.0095" height="18" fill="white" transform="translate(3 3)"/>
</clipPath>
</defs>
</svg>
